<svg width="38" height="51" viewBox="0 0 38 51" fill="none" xmlns="http://www.w3.org/2000/svg">
<path d="M33 6.286H25.142C25.1211 4.63271 24.4498 3.05421 23.2733 1.89247C22.0968 0.730722 20.5099 0.0792847 18.8565 0.0792847C17.2031 0.0792847 15.6162 0.730722 14.4397 1.89247C13.2633 3.05421 12.5919 4.63271 12.571 6.286H4.714C3.46385 6.28627 2.26498 6.783 1.38099 7.66699C0.497002 8.55098 0.000265115 9.74985 0 11L0 45.57C0.000265115 46.8201 0.497002 48.019 1.38099 48.903C2.26498 49.787 3.46385 50.2837 4.714 50.284H33C34.2502 50.2837 35.449 49.787 36.333 48.903C37.217 48.019 37.7137 46.8201 37.714 45.57V11C37.7137 9.74985 37.217 8.55098 36.333 7.66699C35.449 6.783 34.2502 6.28627 33 6.286ZM9.428 41.642C8.96183 41.642 8.50613 41.5038 8.11852 41.2448C7.73092 40.9858 7.42881 40.6177 7.25042 40.187C7.07202 39.7563 7.02534 39.2824 7.11629 38.8252C7.20724 38.368 7.43172 37.948 7.76135 37.6183C8.09098 37.2887 8.51096 37.0642 8.96817 36.9733C9.42539 36.8823 9.8993 36.929 10.33 37.1074C10.7607 37.2858 11.1288 37.5879 11.3878 37.9755C11.6468 38.3631 11.785 38.8188 11.785 39.285C11.7858 39.5947 11.7254 39.9016 11.6072 40.1879C11.489 40.4742 11.3154 40.7344 11.0964 40.9534C10.8774 41.1724 10.6172 41.346 10.3309 41.4642C10.0446 41.5824 9.73775 41.6428 9.428 41.642ZM9.428 32.214C8.96183 32.214 8.50613 32.0758 8.11852 31.8168C7.73092 31.5578 7.42881 31.1897 7.25042 30.759C7.07202 30.3283 7.02534 29.8544 7.11629 29.3972C7.20724 28.94 7.43172 28.52 7.76135 28.1903C8.09098 27.8607 8.51096 27.6362 8.96817 27.5453C9.42539 27.4543 9.8993 27.501 10.33 27.6794C10.7607 27.8578 11.1288 28.1599 11.3878 28.5475C11.6468 28.9351 11.785 29.3908 11.785 29.857C11.7858 30.1667 11.7254 30.4736 11.6072 30.7599C11.489 31.0462 11.3154 31.3064 11.0964 31.5254C10.8774 31.7444 10.6172 31.918 10.3309 32.0362C10.0446 32.1544 9.73775 32.2148 9.428 32.214ZM9.428 22.786C8.96183 22.786 8.50613 22.6478 8.11852 22.3888C7.73092 22.1298 7.42881 21.7617 7.25042 21.331C7.07202 20.9003 7.02534 20.4264 7.11629 19.9692C7.20724 19.512 7.43172 19.092 7.76135 18.7623C8.09098 18.4327 8.51096 18.2082 8.96817 18.1173C9.42539 18.0263 9.8993 18.073 10.33 18.2514C10.7607 18.4298 11.1288 18.7319 11.3878 19.1195C11.6468 19.5071 11.785 19.9628 11.785 20.429C11.7857 20.7387 11.7251 21.0454 11.6069 21.3316C11.4887 21.6178 11.3151 21.8778 11.0961 22.0968C10.877 22.3157 10.6169 22.4892 10.3307 22.6073C10.0444 22.7254 9.73767 22.7858 9.428 22.785V22.786ZM18.857 3.928C19.3231 3.928 19.7788 4.06621 20.1664 4.32516C20.554 4.5841 20.8561 4.95216 21.0345 5.38279C21.2129 5.81341 21.2596 6.28727 21.1688 6.74446C21.0779 7.20165 20.8535 7.62163 20.524 7.9513C20.1945 8.28097 19.7746 8.50553 19.3174 8.59659C18.8603 8.68765 18.3864 8.64111 17.9557 8.46287C17.525 8.28463 17.1568 7.98268 16.8977 7.59521C16.6386 7.20773 16.5002 6.75213 16.5 6.286C16.4991 5.97617 16.5594 5.66921 16.6775 5.38277C16.7956 5.09634 16.9692 4.83607 17.1882 4.61694C17.4073 4.39781 17.6675 4.22413 17.9538 4.1059C18.2402 3.98767 18.5472 3.92721 18.857 3.928ZM31.428 40.071C31.4275 40.2793 31.3445 40.4789 31.1972 40.6262C31.0499 40.7735 30.8503 40.8565 30.642 40.857H16.5C16.2917 40.8565 16.0921 40.7735 15.9448 40.6262C15.7975 40.4789 15.7145 40.2793 15.714 40.071V38.5C15.7145 38.2917 15.7975 38.0921 15.9448 37.9448C16.0921 37.7975 16.2917 37.7145 16.5 37.714H30.642C30.8503 37.7145 31.0499 37.7975 31.1972 37.9448C31.3445 38.0921 31.4275 38.2917 31.428 38.5V40.071ZM31.428 30.643C31.4275 30.8513 31.3445 31.0509 31.1972 31.1982C31.0499 31.3455 30.8503 31.4285 30.642 31.429H16.5C16.2917 31.4285 16.0921 31.3455 15.9448 31.1982C15.7975 31.0509 15.7145 30.8513 15.714 30.643V29.071C15.7145 28.8627 15.7975 28.6631 15.9448 28.5158C16.0921 28.3685 16.2917 28.2855 16.5 28.285H30.642C30.8503 28.2855 31.0499 28.3685 31.1972 28.5158C31.3445 28.6631 31.4275 28.8627 31.428 29.071V30.643ZM31.428 21.215C31.4275 21.4233 31.3445 21.6229 31.1972 21.7702C31.0499 21.9175 30.8503 22.0005 30.642 22.001H16.5C16.2917 22.0005 16.0921 21.9175 15.9448 21.7702C15.7975 21.6229 15.7145 21.4233 15.714 21.215V19.642C15.7145 19.4337 15.7975 19.2341 15.9448 19.0868C16.0921 18.9395 16.2917 18.8565 16.5 18.856H30.642C30.8503 18.8565 31.0499 18.9395 31.1972 19.0868C31.3445 19.2341 31.4275 19.4337 31.428 19.642V21.215Z" fill="#FF5A5A"/>
</svg>
