<svg viewBox="0 0 42 42" fill="none" xmlns="http://www.w3.org/2000/svg">
<path d="M40.0408 21C40.0408 24.7659 38.9241 28.4473 36.8319 31.5785C34.7397 34.7098 31.7659 37.1503 28.2866 38.5914C24.8074 40.0326 20.9789 40.4096 17.2854 39.6749C13.5918 38.9402 10.1991 37.1268 7.53616 34.4639C4.87326 31.801 3.05979 28.4082 2.3251 24.7147C1.59041 21.0211 1.96748 17.1927 3.40863 13.7134C4.84979 10.2341 7.29029 7.26038 10.4215 5.16815C13.5528 3.07592 17.2341 1.9592 21 1.9592C23.5005 1.9592 25.9765 2.4517 28.2866 3.40859C30.5968 4.36548 32.6958 5.76802 34.4639 7.53612C36.232 9.30422 37.6346 11.4033 38.5915 13.7134C39.5483 16.0235 40.0408 18.4995 40.0408 21Z" stroke="#000" stroke-width="3" stroke-linecap="round" stroke-linejoin="round"/>
<path d="M21.0001 13.3839L13.384 21L21.0001 28.6161" stroke="#000" stroke-width="3" stroke-linecap="round" stroke-linejoin="round"/>
<path d="M28.6175 21H13.384" stroke="#000" stroke-width="3" stroke-linecap="round" stroke-linejoin="round"/>
</svg>
