<svg width="42" height="37" viewBox="0 0 42 37" fill="none" xmlns="http://www.w3.org/2000/svg">
<path d="M39.6979 0.507636C40.1022 0.446686 40.5143 0.518285 40.8798 0.71298C41.2453 0.907674 41.5469 1.2163 41.7448 1.59811C41.9428 1.97991 42.0278 2.41693 41.9885 2.85144C41.9493 3.28595 41.7877 3.69752 41.5251 4.03179L16.9148 35.3775C16.7043 35.6458 16.4359 35.8553 16.1327 35.9878C15.8296 36.1204 15.5008 36.1721 15.1748 36.1385C14.8488 36.1049 14.5353 35.9869 14.2615 35.7948C13.9876 35.6028 13.7616 35.3423 13.603 35.036L0.306381 9.39033C0.147644 9.08415 0.0609813 8.74127 0.0538617 8.3913C0.0467453 8.04132 0.119384 7.69474 0.265521 7.38148C0.411655 7.06821 0.626898 6.79766 0.892667 6.59317C1.15844 6.38869 1.46676 6.25641 1.79102 6.20774L39.6979 0.507636Z" fill="white"/>
</svg>
