<svg width="66" height="67" viewBox="0 0 66 67" fill="none" xmlns="http://www.w3.org/2000/svg">
<path d="M19.4721 53.7002C16.8328 50.2625 16.7747 50.2087 13.937 48.5369C12.2 47.3286 10.8274 45.6672 9.96861 43.7334C9.1098 41.7996 8.79762 39.6673 9.06599 37.5684C9.37148 36.2631 9.48676 34.9204 9.40827 33.5821C7.77619 25.1566 8.62375 22.9486 15.4744 17.7793C16.4282 16.8372 17.241 15.7623 17.8874 14.5878C19.0882 12.8463 20.746 11.4697 22.6784 10.6093C24.6109 9.74889 26.7432 9.43808 28.8409 9.71103C30.1463 10.0165 31.4889 10.1317 32.8272 10.0533C41.2527 8.42122 43.4607 9.26879 48.63 16.1194C49.5721 17.0733 50.647 17.886 51.8215 18.5325C53.563 19.7332 54.9397 21.391 55.8 23.3235C56.6604 25.2559 56.9712 27.3882 56.6983 29.4859C56.3927 30.7913 56.2774 32.1339 56.356 33.4723C57.9881 41.8978 57.1405 44.1058 50.2899 49.2751C49.3684 50.1715 48.5846 51.1995 47.964 52.3254C46.5501 54.4667 44.4603 56.0731 42.0274 56.8888C39.5946 57.7045 36.9588 57.6825 34.5399 56.8263C33.4421 56.4049 32.4324 56.3508 32.2964 56.705C31.8913 57.7604 25.9822 58.0756 23.6505 57.1662C22.0164 56.3383 20.5888 55.1545 19.4728 53.7019L19.4721 53.7002ZM38.1634 36.887C46.1861 33.3699 49.4974 31.5594 49.7225 30.5667C50.4511 27.3598 47.8436 27.6985 37.8567 32.1305L27.9735 36.5121L25.9427 32.0413C24.2159 28.2397 23.7095 27.6388 22.5662 28.0258C21.9024 28.2148 21.3271 28.6329 20.9424 29.2059C20.6029 30.0903 25.4364 41.2461 26.3021 41.5784C26.6427 41.7092 31.9799 39.5987 38.1634 36.887Z" fill="#FF5A5A"/>
</svg>
