<svg width="107" height="107" viewBox="0 0 107 107" fill="none" xmlns="http://www.w3.org/2000/svg">
<path d="M103 53.5C103 63.2902 100.097 72.8605 94.6578 81.0007C89.2186 89.141 81.4878 95.4855 72.4429 99.232C63.3979 102.979 53.4451 103.959 43.8431 102.049C34.241 100.139 25.4209 95.4245 18.4982 88.5018C11.5755 81.5791 6.86112 72.759 4.95115 63.157C3.04118 53.5549 4.02145 43.6021 7.76799 34.5572C11.5145 25.5122 17.8591 17.7814 25.9993 12.3423C34.1395 6.90312 43.7098 4 53.5 4C60.0005 4 66.4372 5.28035 72.4429 7.76796C78.4485 10.2556 83.9053 13.9017 88.5018 18.4982C93.0983 23.0947 96.7445 28.5516 99.2321 34.5572C101.72 40.5628 103 46.9996 103 53.5V53.5Z" stroke="#FF5A5A" stroke-width="7" stroke-linecap="round" stroke-linejoin="round"/>
<path d="M53.5021 33.701V73.301" stroke="#FF5A5A" stroke-width="7" stroke-linecap="round" stroke-linejoin="round"/>
<path d="M33.701 53.502H73.301" stroke="#FF5A5A" stroke-width="7" stroke-linecap="round" stroke-linejoin="round"/>
</svg>
