<svg width="34" height="38" viewBox="0 0 34 38" fill="none" xmlns="http://www.w3.org/2000/svg">
<path d="M14.1933 37.3868C15.4203 37.7363 16.7369 37.5873 17.8534 36.9724C18.9698 36.3576 19.7947 35.3273 20.1466 34.1082L10.8933 31.472C10.5415 32.6911 10.6915 33.9992 11.3103 35.1084C11.9292 36.2176 12.9662 37.0372 14.1933 37.3868ZM32.8676 31.0707C31.9019 29.1815 29.9357 26.1938 32.0563 18.8462C32.8198 16.2102 32.6348 13.3922 31.533 10.8771C30.4312 8.36194 28.4815 6.30696 26.0195 5.06569L26.4514 3.56922C26.5385 3.26739 26.5649 2.95148 26.5292 2.63951C26.4934 2.32755 26.3961 2.02563 26.2429 1.75102C26.0897 1.4764 25.8835 1.23445 25.6362 1.03899C25.3889 0.84353 25.1052 0.698383 24.8014 0.611837C24.4976 0.525291 24.1797 0.499041 23.8657 0.534585C23.5517 0.570129 23.2478 0.666771 22.9714 0.818995C22.695 0.971218 22.4515 1.17604 22.2547 1.42177C22.058 1.6675 21.9119 1.94932 21.8248 2.25114L21.3929 3.74761C18.6429 3.50404 15.8935 4.22029 13.6176 5.77316C11.3417 7.32602 9.68172 9.61839 8.92322 12.2559C6.80262 19.6034 3.54168 21.102 1.71504 22.1956C1.19499 22.5042 0.814738 23.0001 0.65341 23.5801C0.566417 23.8825 0.540284 24.199 0.576506 24.5115C0.612728 24.824 0.710593 25.1263 0.864505 25.4012C1.01842 25.676 1.22536 25.918 1.47349 26.1134C1.72162 26.3087 2.00608 26.4535 2.31059 26.5396L30.0559 34.4439C30.3601 34.5313 30.6785 34.5582 30.9931 34.5232C31.3078 34.4882 31.6123 34.3919 31.8895 34.2398C32.1666 34.0878 32.4108 33.8829 32.6082 33.637C32.8056 33.3911 32.9522 33.1089 33.0398 32.8067C33.21 32.2276 33.1483 31.6056 32.8676 31.0707Z" fill="#FF5A5A"/>
</svg>
