<svg width="32" height="34" viewBox="0 0 32 34" fill="none" xmlns="http://www.w3.org/2000/svg">
<path d="M16.001 17.4932C17.5691 17.4932 19.1018 17.0091 20.4056 16.1021C21.7094 15.1952 22.7255 13.9061 23.3256 12.3979C23.9256 10.8898 24.0826 9.23019 23.7767 7.62911C23.4708 6.02803 22.7157 4.55734 21.607 3.40302C20.4982 2.24871 19.0856 1.46261 17.5477 1.14413C16.0098 0.825658 14.4158 0.989111 12.9671 1.61382C11.5185 2.23853 10.2803 3.29644 9.40915 4.65378C8.53801 6.01111 8.07304 7.6069 8.07304 9.23935C8.07278 10.3233 8.27766 11.3967 8.67599 12.3983C9.07432 13.3998 9.65828 14.3098 10.3945 15.0763C11.1307 15.8428 12.0048 16.4507 12.9668 16.8654C13.9288 17.2801 14.9598 17.4934 16.001 17.4932ZM16.001 21.6201C10.709 21.6201 0.144043 24.3852 0.144043 29.8739V34.0008H31.857V29.8739C31.857 24.3852 21.293 21.6201 16.001 21.6201Z" fill="#7B7B7B"/>
</svg>
